<?xml version="1.0" standalone="no"?>
<!DOCTYPE svg PUBLIC "-//W3C//DTD SVG 20010904//EN"
 "http://www.w3.org/TR/2001/REC-SVG-20010904/DTD/svg10.dtd">
<svg version="1.0" xmlns="http://www.w3.org/2000/svg"
 width="1292.000000pt" height="440.000000pt" viewBox="0 0 1292.000000 440.000000"
 preserveAspectRatio="xMidYMid meet">

<g transform="translate(0.000000,440.000000) scale(0.100000,-0.100000)"
fill="#000000" stroke="none">
<path d="M0 2200 l0 -2200 2727 0 c2578 0 2728 1 2747 18 20 16 20 16 7 0 -13
-17 26 -18 784 -18 758 0 797 1 784 18 -12 15 -12 16 2 5 9 -7 37 -16 62 -19
38 -5 48 -4 53 10 6 15 7 15 19 0 15 -22 84 -13 102 13 7 9 13 12 13 7 0 -6
-5 -15 -12 -22 -9 -9 -5 -12 21 -12 18 0 30 4 27 9 -3 5 11 4 33 -1 25 -6 51
-6 75 0 20 6 34 7 31 2 -3 -4 29 -8 70 -8 41 0 72 4 69 9 -3 5 6 5 20 -1 17
-6 982 -10 2656 -10 l2630 0 0 2200 0 2200 -2397 0 c-1747 0 -2400 -3 -2410
-11 -7 -6 -13 -29 -13 -50 0 -58 29 -181 47 -201 22 -24 68 -23 94 3 21 21 22
51 5 174 -2 11 -1 14 1 8 3 -7 10 -13 18 -13 7 0 16 -7 19 -16 3 -8 11 -12 16
-9 7 4 8 -3 4 -21 -5 -19 -4 -25 5 -20 8 5 11 -10 11 -52 0 -66 -19 -101 -70
-127 -58 -30 -138 -8 -174 47 -27 42 -50 233 -32 271 8 16 -22 17 -552 17
l-560 0 0 -34 c0 -19 -3 -39 -6 -44 -3 -6 0 -12 6 -15 24 -8 -1 -19 -28 -13
-24 6 -25 8 -10 25 9 9 19 32 22 50 l7 32 -71 -2 c-39 -1 -69 -5 -67 -9 6 -9
-19 -20 -45 -20 -9 0 -23 7 -30 15 -11 13 -82 15 -525 15 -492 0 -512 -1 -511
-19 1 -10 -38 -61 -86 -113 l-88 -95 -122 -24 c-68 -13 -129 -24 -137 -24 -8
0 -67 43 -132 95 -118 94 -119 95 -117 135 l3 40 -2498 3 -2497 2 0 -2200z
m4927 2158 c-3 -7 -5 -2 -5 12 0 14 2 19 5 13 2 -7 2 -19 0 -25z m256 -279
c79 -73 89 -76 290 -78 l109 -1 81 53 c111 73 106 70 123 57 12 -11 -4 -24
-92 -78 l-107 -65 -174 7 -174 6 -162 166 c-179 183 -229 258 -65 98 56 -56
134 -130 171 -165z m-477 214 c-10 -11 -19 -7 -22 10 -2 15 0 16 12 6 8 -6 12
-14 10 -16z m189 -21 c-3 -3 4 -11 15 -17 11 -6 107 -97 213 -203 l194 -193
89 10 c163 18 207 17 250 -9 22 -13 47 -30 57 -39 16 -13 21 -13 40 -1 12 8
49 28 83 46 l60 33 90 -26 c49 -14 91 -27 92 -29 2 -1 -8 -35 -22 -75 -14 -40
-26 -76 -26 -81 0 -5 16 -16 35 -24 19 -7 52 -21 73 -30 l37 -16 -81 -27
c-158 -55 -295 -171 -359 -307 -19 -40 -35 -82 -35 -92 0 -10 -4 -22 -9 -27
-5 -6 -13 -27 -16 -47 -6 -31 -4 -38 8 -38 29 0 47 -30 47 -77 0 -41 -3 -46
-31 -56 -28 -11 -30 -15 -26 -47 3 -19 7 -42 9 -50 9 -34 20 -66 27 -85 16
-37 73 -170 92 -210 66 -145 89 -198 87 -200 -2 -1 -48 -24 -103 -50 l-100
-48 130 -19 c365 -52 836 -118 845 -118 6 0 10 -44 10 -118 l0 -118 -90 -69
c-72 -56 -90 -75 -91 -97 -1 -16 -3 -32 -4 -38 -1 -5 -3 -19 -4 -30 -1 -17 -4
-19 -20 -10 -30 15 -99 12 -131 -7 -15 -9 -38 -34 -50 -56 -27 -47 -23 -105 9
-148 l21 -28 -47 -186 c-25 -102 -44 -187 -42 -189 9 -8 254 -34 260 -28 3 4
11 87 17 186 l11 178 38 33 c36 31 38 36 38 91 -1 33 -7 73 -14 89 -11 26 -11
38 4 88 16 56 18 58 117 124 55 37 104 77 109 88 4 11 15 62 23 114 8 51 17
95 18 97 2 1 84 -13 183 -32 99 -19 250 -48 335 -64 85 -16 181 -35 214 -41
l58 -12 -5 -48 c-5 -37 -2 -52 13 -69 10 -12 23 -19 28 -16 7 4 52 75 135 211
7 11 29 46 50 77 l38 58 154 0 c95 0 156 -4 160 -10 5 -7 -46 -10 -155 -9 -89
0 -163 -1 -164 -3 -1 -1 -40 -64 -86 -138 -46 -74 -94 -152 -108 -174 l-24
-38 -24 23 c-29 27 -32 24 -40 -29 -5 -33 -3 -42 9 -42 8 0 28 -3 45 -6 28 -6
33 -1 93 77 34 46 65 86 68 89 3 3 11 12 16 21 6 10 33 49 61 87 l50 70 130 0
c75 -1 118 -4 104 -8 -14 -5 -74 -8 -133 -9 -69 -1 -106 -5 -102 -11 3 -6 1
-10 -6 -10 -7 0 -10 -3 -6 -6 3 -3 -3 -15 -13 -27 -10 -12 -66 -84 -124 -159
l-106 -138 -46 7 c-50 7 -64 -3 -64 -44 0 -21 5 -23 48 -24 26 0 68 -2 93 -5
l46 -4 27 52 c55 112 113 208 121 200 4 -4 5 -2 1 5 -10 17 29 90 51 94 10 2
41 1 68 -2 l50 -6 -45 -3 -45 -3 45 -7 45 -7 -50 -3 c-27 -1 -54 -2 -58 -1 -5
1 -6 -3 -2 -9 3 -5 -2 -11 -12 -11 -17 -1 -17 -2 0 -6 9 -2 17 -11 17 -19 0
-11 7 -13 28 -8 43 10 50 24 12 24 -27 0 -31 2 -21 13 9 9 77 12 271 12 142 0
256 -3 253 -7 -2 -5 4 -8 14 -8 10 0 29 -8 42 -17 14 -9 21 -11 17 -5 -4 7 -3
12 3 12 6 0 15 -9 21 -20 6 -11 16 -17 25 -14 8 4 15 1 15 -5 0 -6 9 -11 20
-11 10 0 23 -6 27 -14 4 -8 28 -16 53 -19 25 -2 -145 -4 -377 -5 -251 -1 -422
-6 -420 -11 4 -18 -78 -140 -91 -136 -7 3 -10 0 -7 -5 7 -12 -4 -34 -64 -127
-51 -81 -45 -79 -174 -64 -38 4 -70 4 -73 -1 -9 -15 -94 -429 -94 -460 0 -14
17 -17 108 -22 59 -4 132 -9 163 -12 l56 -6 120 174 c66 95 142 205 169 243
l50 70 289 3 289 2 83 -82 83 -83 0 -375 c0 -225 -4 -381 -10 -390 -6 -10 -10
116 -10 365 l0 380 -77 77 -78 78 -276 0 -277 0 -94 -132 c-52 -73 -128 -180
-169 -237 l-74 -103 -110 6 c-134 8 -238 17 -245 21 -5 3 -9 -31 -13 -100 -2
-29 -1 -29 43 -26 72 4 381 39 384 43 2 1 31 55 66 118 35 63 82 149 106 190
23 41 53 95 67 120 l25 45 284 2 283 2 48 -47 47 -46 -1 -366 c0 -201 -3 -383
-8 -405 -7 -38 -7 -37 -14 30 -4 39 -7 219 -7 400 l0 330 -35 38 -34 37 -278
-2 -278 -3 -36 -65 c-19 -36 -46 -83 -59 -105 -12 -22 -54 -95 -92 -163 -43
-76 -78 -126 -91 -132 -12 -4 -107 -16 -212 -25 -220 -20 -213 -20 -219 -26
-3 -3 -24 -99 -47 -215 -22 -115 -42 -210 -43 -211 -1 -1 -22 3 -46 8 -48 11
-419 88 -665 138 -82 17 -165 35 -182 40 -18 5 -33 6 -33 3 0 -4 18 -25 40
-47 22 -22 47 -53 55 -70 20 -40 56 -147 51 -152 -2 -2 -20 34 -40 79 -25 56
-55 102 -92 141 -48 51 -60 59 -110 68 -31 6 -58 8 -61 6 -2 -3 33 -31 79 -62
83 -57 84 -58 140 -169 84 -164 65 -152 183 -117 55 17 111 32 125 35 14 3 41
10 60 15 19 6 39 11 43 11 5 0 37 -29 72 -65 l64 -65 363 -1 c200 0 386 -4
413 -8 28 -4 -136 -8 -363 -10 l-412 -2 -40 32 c-22 18 -37 36 -34 41 3 5 2 7
-3 6 -11 -4 -53 34 -47 43 5 9 -13 5 -144 -32 -57 -16 -108 -26 -114 -23 -6 4
-8 2 -5 -3 4 -6 -10 -13 -33 -17 -22 -3 -43 -7 -47 -9 -5 -1 -15 12 -23 28 -9
17 -39 72 -68 123 -29 51 -50 98 -46 104 4 6 3 8 -3 5 -6 -4 -21 5 -34 19 -40
43 -177 134 -201 134 -13 1 -56 7 -95 13 l-73 13 -37 -108 c-21 -59 -44 -108
-50 -108 -9 0 -10 6 -3 22 5 13 19 58 31 100 12 43 27 78 33 78 32 1 -25 20
-59 20 l-40 0 3 -45 c2 -25 0 -45 -4 -45 -5 0 -10 21 -12 47 -1 26 -4 48 -6
50 -3 3 -82 14 -288 39 -76 9 -135 21 -132 25 3 5 -2 6 -11 3 -14 -6 -200 12
-238 23 -16 4 -18 11 -12 49 6 42 4 46 -36 89 -23 25 -49 45 -58 45 -9 0 -41
-16 -71 -35 -30 -19 -58 -35 -63 -35 -5 0 -57 43 -115 95 l-107 95 -222 -223
c-123 -122 -225 -221 -229 -219 -3 2 -12 -5 -20 -15 -14 -16 -14 -16 -3 7 12
24 457 480 469 480 3 0 54 -45 114 -100 59 -55 109 -100 112 -100 2 0 34 18
70 41 l67 41 44 -46 c24 -25 47 -46 52 -46 12 0 21 103 10 114 -14 15 -101 46
-111 40 -5 -3 -47 -21 -94 -39 l-86 -34 -91 89 -91 89 -186 -187 c-289 -290
-327 -325 -335 -313 -4 7 -1 10 7 9 7 -2 12 3 11 9 -2 7 3 12 10 10 6 -1 11 3
10 9 -2 10 286 308 423 437 l52 49 97 -88 97 -88 77 28 c105 39 115 40 161 22
63 -25 66 -23 74 46 3 34 4 63 2 65 -11 12 -121 -26 -184 -63 -40 -24 -76 -44
-79 -44 -2 0 -41 26 -86 58 -45 31 -101 69 -123 84 l-42 27 -236 -235 c-143
-143 -240 -233 -247 -229 -7 5 79 98 227 246 131 132 241 239 245 239 3 0 63
-38 133 -85 l128 -85 56 31 c32 18 68 38 82 45 14 8 50 19 82 25 l56 11 4 44
c2 24 0 44 -5 44 -4 0 -25 -9 -47 -20 -26 -13 -59 -20 -97 -20 -57 0 -58 -1
-81 -40 -12 -22 -28 -40 -34 -40 -6 0 -70 32 -143 70 -73 39 -135 70 -137 70
-3 0 -112 -108 -244 -240 -162 -164 -241 -237 -248 -230 -7 7 59 80 209 230
121 121 232 229 247 241 l27 20 141 -71 c78 -39 146 -70 150 -68 5 2 19 19 32
38 22 32 27 34 70 31 38 -2 60 4 107 29 56 30 60 35 65 74 3 22 17 120 30 216
14 96 39 285 56 420 42 333 38 312 58 306 31 -8 132 -18 132 -12 0 10 -131
301 -138 308 -4 4 -48 11 -97 14 l-90 7 -72 59 c-40 32 -83 58 -95 59 -13 0
-43 6 -67 12 l-44 12 -64 180 c-36 99 -70 195 -76 213 -6 20 -64 87 -153 177
l-142 145 -289 1 c-158 0 -306 3 -328 8 -40 7 -40 7 24 14 35 4 186 7 335 7
l271 0 143 -143 143 -143 53 -144 c29 -80 66 -180 81 -222 15 -43 30 -78 34
-78 3 0 33 -4 65 -10 47 -7 71 -19 118 -55 65 -52 88 -61 171 -64 52 -2 58 0
55 16 -3 15 -14 18 -75 18 -66 0 -74 2 -105 31 -65 60 -89 74 -132 74 -69 0
-83 8 -91 48 -13 80 -67 317 -72 322 -285 283 -843 853 -838 858 3 3 10 0 15
-8 6 -8 10 -11 10 -6 0 7 666 -649 821 -808 10 -11 27 -60 40 -115 12 -53 29
-131 39 -174 10 -43 21 -81 24 -84 4 -4 34 -9 67 -11 55 -4 64 -8 113 -53 l53
-48 49 12 c55 14 54 10 35 117 -6 36 -11 89 -11 119 l0 53 -77 -6 c-43 -4 -94
-9 -113 -12 l-36 -5 -64 138 -63 138 -376 379 c-446 449 -413 415 -406 426 3
5 0 12 -6 16 -8 4 -9 3 -5 -4 11 -18 1 -14 -17 6 -16 18 -15 18 12 14 21 -3
35 2 47 17 10 12 24 21 30 21 7 0 15 7 18 16 4 10 13 13 27 9 17 -6 20 -4 15
12 -5 14 -2 20 11 20 18 0 110 -87 515 -487 266 -262 269 -266 333 -380 l64
-115 54 3 54 4 31 91 31 92 -39 51 c-21 28 -42 69 -46 90 -3 22 -10 45 -13 51
-4 7 -144 151 -312 320 -168 170 -313 322 -322 338 -17 29 -17 28 12 -5 17
-19 31 -30 31 -26 0 5 140 -130 310 -299 294 -293 310 -311 310 -346 0 -28 10
-49 41 -88 22 -28 42 -51 45 -51 2 0 13 18 24 39 l20 39 -21 50 c-17 42 -26
51 -59 61 -31 9 -97 71 -339 318 -165 169 -297 311 -294 316 3 5 73 -59 157
-141 391 -387 452 -445 493 -464 33 -15 47 -28 63 -65 l21 -47 20 34 c12 19
63 76 115 127 l94 91 -51 33 -51 32 -146 -11 -147 -12 -212 215 c-116 118
-222 229 -235 247 l-23 33 33 -24 c18 -13 31 -26 27 -29z m-355 8 c0 -5 -2
-10 -4 -10 -3 0 -8 5 -11 10 -3 6 -1 10 4 10 6 0 11 -4 11 -10z m304 -52 c-3
-4 2 -8 10 -8 9 0 38 -21 64 -47 27 -27 132 -131 234 -232 l186 -184 68 27
c70 28 86 29 177 5 27 -7 37 -15 37 -29 0 -25 -6 -25 -75 1 -63 24 -76 22
-156 -14 l-56 -26 -224 225 c-123 124 -223 230 -221 235 1 6 -1 8 -6 5 -9 -5
-79 60 -84 79 -2 6 -7 9 -11 7 -5 -1 -5 2 -2 9 5 7 17 1 36 -17 15 -15 26 -31
23 -36z m-119 42 c3 -5 1 -10 -4 -10 -6 0 -11 5 -11 10 0 6 2 10 4 10 3 0 8
-4 11 -10z m-146 -23 c0 -9 -2 -8 -6 1 -2 6 -10 9 -15 6 -7 -4 -8 -2 -4 5 9
13 26 5 25 -12z m39 -33 c12 -8 19 -20 16 -26 -4 -6 -3 -8 3 -5 5 3 127 -109
271 -250 l262 -256 0 -65 c0 -59 5 -75 50 -163 28 -53 50 -100 50 -103 0 -3
-8 -6 -18 -6 -19 0 -21 3 -85 120 -43 80 -45 88 -40 145 l5 60 -117 120 c-64
66 -189 193 -278 283 -146 147 -182 190 -119 146z m2158 -14 c167 -46 316
-134 435 -257 163 -167 262 -383 275 -598 3 -49 7 -96 9 -102 3 -8 19 1 42 22
21 19 44 33 51 30 8 -3 37 -8 65 -11 l52 -6 89 111 89 111 56 -1 c31 0 76 -4
101 -8 62 -10 27 -19 -70 -19 l-75 1 -90 -112 -90 -111 -70 5 -70 5 -42 -40
c-41 -39 -42 -41 -58 -152 l-17 -113 39 -98 39 -97 185 -145 c101 -80 202
-159 223 -177 22 -18 47 -36 55 -39 8 -3 10 -8 5 -11 -5 -3 -112 72 -239 167
l-230 173 -36 91 c-20 50 -38 94 -41 97 -4 3 -10 -23 -15 -58 -11 -74 -12 -72
102 -226 56 -74 90 -109 123 -129 114 -64 282 -166 282 -170 0 -3 -62 28 -137
68 -76 40 -151 79 -166 87 -27 13 -134 149 -186 235 -17 28 -26 35 -32 26 -4
-7 -5 -17 -2 -22 3 -5 -11 -7 -33 -3 -22 3 -100 13 -174 22 -74 9 -137 18
-139 20 -2 2 9 88 24 191 39 259 43 359 15 459 -45 170 -153 307 -313 399 -29
17 -67 52 -98 94 l-50 66 24 20 c13 11 43 35 66 53 22 19 41 37 41 41 0 3 -15
22 -32 41 -97 104 -97 102 18 70z m-2503 -18 c16 -18 16 -19 -3 -17 -11 1 -23
5 -27 10 -5 4 -2 4 6 0 11 -6 13 -4 8 8 -8 22 -4 21 16 -1z m1897 -54 c12 -29
29 -61 37 -70 13 -15 12 -18 -6 -28 -23 -12 -45 -5 -35 11 8 14 -26 102 -44
113 -12 7 -12 10 -1 17 23 14 25 11 49 -43z m260 25 c0 -5 -17 -25 -36 -47
-27 -29 -38 -35 -45 -25 -5 9 3 21 27 38 19 13 34 28 34 33 0 4 5 8 10 8 6 0
10 -3 10 -7z m1555 -17 c41 -17 75 -68 75 -112 0 -17 -4 -55 -10 -85 -5 -30
-12 -71 -15 -92 -17 -111 -156 -155 -234 -75 -17 17 -33 45 -36 62 -7 39 30
232 51 264 31 47 106 64 169 38z m-3457 -491 c225 -223 414 -418 420 -433 6
-15 28 -81 48 -147 20 -66 40 -124 44 -128 4 -4 20 -3 36 3 27 11 31 9 60 -24
25 -28 41 -37 78 -42 39 -6 46 -10 46 -29 0 -22 -1 -22 -56 -9 -31 7 -57 14
-59 16 -1 2 -10 18 -19 36 -19 37 -21 37 -70 17 -29 -12 -37 -13 -41 -3 -11
36 -56 181 -72 235 -18 61 -21 65 -400 448 -372 376 -455 465 -435 465 6 0
194 -182 420 -405z m3009 338 c18 -10 65 -50 106 -88 57 -54 76 -79 81 -107
17 -94 -81 -187 -166 -159 -38 13 -184 136 -204 172 -18 33 -17 95 3 129 20
35 79 69 118 70 17 0 45 -8 62 -17z m-1183 -19 c24 -9 20 -57 -8 -83 -56 -53
-103 4 -50 60 30 31 33 32 58 23z m-29 -286 c-8 -50 -10 -52 -24 -43 -8 4 -8
12 -1 25 5 10 10 28 10 39 0 12 5 21 11 21 7 0 8 -14 4 -42z m-2357 -10 c7 -7
12 -19 11 -27 0 -11 -4 -8 -11 7 -16 33 -42 24 -46 -17 -5 -48 14 -63 40 -31
l20 25 -3 -25 c-4 -28 -32 -38 -54 -20 -29 24 -13 100 20 100 6 0 16 -5 23
-12z m4182 -8 c77 -2 81 -3 40 -11 -25 -4 -101 -8 -170 -8 l-125 -1 -110 -110
-110 -110 -80 61 c-100 75 -104 80 -96 103 6 16 18 10 92 -52 l84 -71 102 102
103 102 92 -2 c51 -1 131 -2 178 -3z m-1674 -45 c19 -29 16 -54 -8 -69 -22
-13 -48 0 -65 34 -26 53 40 85 73 35z m454 -17 c-1 -7 -6 -34 -13 -60 -9 -32
-16 -45 -25 -39 -9 5 -8 17 7 46 10 22 17 45 14 52 -3 7 0 13 6 13 6 0 11 -6
11 -12z m-717 -15 c10 -6 9 -45 -2 -62 -15 -24 -85 -3 -89 27 -5 36 16 54 52
46 17 -3 34 -8 39 -11z m1912 -13 c13 -5 -27 -9 -107 -9 l-126 -1 -27 -32
c-15 -18 -58 -65 -94 -104 l-67 -71 -87 -5 c-82 -5 -87 -5 -87 14 0 19 6 20
78 17 l79 -4 98 103 97 102 112 -1 c61 0 120 -4 131 -9z m-1805 -79 c-14 -9
-33 -24 -42 -33 -22 -22 -24 -22 -32 -3 -4 10 5 19 28 29 18 8 37 19 40 25 4
6 12 8 19 4 7 -4 2 -12 -13 -22z m234 -14 c13 -10 17 -24 14 -67 -3 -51 -5
-55 -30 -58 -17 -2 -34 4 -48 18 -19 19 -21 29 -16 63 9 56 40 73 80 44z m482
-28 c25 -20 13 -54 -20 -57 -37 -5 -73 5 -79 20 -2 7 0 24 4 37 8 20 14 23 45
18 20 -3 42 -11 50 -18z m-607 -38 c33 -46 22 -81 -25 -81 -23 0 -74 51 -74
74 0 44 70 49 99 7z m-1827 -97 c102 -102 107 -108 113 -158 3 -28 11 -88 17
-134 l11 -82 -27 -29 c-15 -16 -72 -66 -127 -112 -54 -46 -99 -89 -99 -94 0
-6 15 -56 34 -110 l33 -100 -41 -82 c-23 -45 -44 -83 -47 -83 -23 -1 -13 39
23 98 l41 67 -20 55 c-11 30 -30 78 -41 105 l-20 50 134 120 c125 112 134 122
130 150 -3 17 -13 73 -22 125 l-17 95 -95 98 -96 97 -320 0 c-205 0 -317 3
-310 10 10 10 117 15 434 18 l206 2 106 -106z m2254 49 c5 -18 0 -32 -22 -54
-32 -34 -59 -37 -74 -9 -13 24 -2 49 36 79 30 24 52 18 60 -16z m107 -93 c4
-33 9 -71 13 -84 4 -19 1 -24 -19 -28 -24 -5 -24 -4 -19 67 3 47 1 75 -7 79
-17 11 -13 26 8 26 15 0 19 -10 24 -60z m-2904 16 c18 -21 10 -87 -12 -100
-38 -23 -65 64 -31 98 19 20 28 20 43 2z m95 -2 c20 -19 21 -78 1 -94 -40 -33
-82 37 -51 85 19 29 29 31 50 9z m-179 -43 c0 -30 -5 -47 -17 -54 -25 -16 -48
9 -48 53 0 44 6 52 40 48 22 -3 25 -7 25 -47z m285 24 c16 -19 1 -84 -22 -98
-27 -18 -51 10 -44 51 9 57 40 79 66 47z m-400 -25 c0 -11 -4 -20 -9 -20 -5 0
-7 9 -4 20 3 11 7 20 9 20 2 0 4 -9 4 -20z m-73 -27 c-3 -10 -5 -4 -5 12 0 17
2 24 5 18 2 -7 2 -21 0 -30z m584 -2 c15 -49 7 -71 -25 -71 -29 0 -46 25 -46
68 0 35 6 42 36 42 18 0 26 -8 35 -39z m1779 -26 l34 -35 -119 -120 c-95 -95
-116 -121 -107 -133 9 -11 6 -19 -16 -40 l-28 -26 -49 59 c-28 32 -54 58 -60
58 -32 -1 -39 2 -27 14 16 16 16 98 0 98 -10 0 -10 2 0 8 9 6 11 21 6 50 -8
48 6 72 41 72 23 0 45 -34 45 -72 0 -24 -26 -47 -53 -48 -15 0 -18 -8 -16 -50
3 -63 19 -79 48 -49 16 17 23 20 34 10 20 -16 202 166 185 186 -8 10 -6 18 7
33 25 28 36 25 75 -15z m-2285 15 c3 -5 -1 -10 -9 -10 -9 0 -16 5 -16 10 0 6
4 10 9 10 6 0 13 -4 16 -10z m725 -17 c6 -16 15 -36 21 -47 8 -14 8 -21 -2
-27 -10 -6 -17 4 -28 37 -8 24 -18 44 -22 44 -5 0 -9 5 -9 10 0 22 31 8 40
-17z m2210 -5 c57 -30 67 -46 49 -84 -18 -36 -45 -41 -107 -18 -55 21 -62 28
-62 70 0 58 44 70 120 32z m-2341 -75 c-18 -21 -35 -40 -37 -43 -2 -2 -7 1
-11 8 -5 9 5 26 28 50 47 49 66 34 20 -15z m2078 -19 c20 -42 9 -69 -28 -69
-33 0 -70 65 -50 89 24 29 59 20 78 -20z m1309 -51 c-2 -2 -12 9 -22 26 -10
17 -22 31 -27 31 -4 0 -5 5 -2 10 4 6 18 -6 31 -26 14 -20 23 -38 20 -41z
m-836 -3 c34 -35 34 -34 20 -61 -17 -30 -64 -25 -89 10 -26 36 -27 57 -3 70
27 16 41 13 72 -19z m633 -5 c39 -35 33 -95 -10 -95 -28 0 -73 43 -73 70 0 53
38 64 83 25z m-3734 -64 c41 -34 53 -93 46 -221 -6 -97 -20 -124 -78 -153 -72
-36 -168 10 -183 88 -6 36 0 127 10 143 4 7 2 12 -3 12 -6 0 -11 10 -11 23 0
18 2 19 10 7 9 -13 10 -13 10 1 0 8 -6 21 -12 28 -11 11 -10 12 1 6 9 -5 12
-3 9 6 -14 40 54 89 122 89 34 0 53 -7 79 -29z m304 -113 c15 -62 32 -137 39
-166 9 -43 15 -52 29 -49 13 4 20 -3 24 -25 4 -16 5 -31 2 -34 -7 -7 -116 -28
-121 -23 -2 2 -7 16 -11 32 -6 21 -4 27 9 27 21 0 21 -6 -15 141 -27 107 -34
126 -49 122 -16 -4 -29 19 -30 54 0 9 51 29 86 32 6 1 23 -50 37 -111z m2197
84 c0 -11 9 -27 20 -37 15 -13 17 -22 10 -29 -8 -8 -14 -6 -22 8 -5 10 -18 25
-29 34 -14 12 -16 19 -7 29 15 19 28 16 28 -5z m356 -18 c43 -32 129 -223 120
-267 -20 -100 -142 -148 -221 -85 -25 20 -88 135 -113 208 -32 90 62 192 158
172 14 -2 39 -15 56 -28z m178 -39 c14 -14 32 -25 41 -25 17 0 20 -16 5 -25
-6 -3 -22 3 -36 14 -15 12 -35 21 -46 21 -16 0 -17 3 -8 20 13 25 14 25 44 -5z
m-2141 -82 c-3 -16 -6 -36 -5 -46 0 -10 -4 -16 -11 -14 -7 3 -10 11 -8 18 2 8
4 26 5 41 0 16 7 28 14 28 9 0 10 -8 5 -27z m1694 1 c23 -18 33 -33 33 -53 0
-55 -40 -66 -89 -25 -32 27 -38 52 -21 85 14 26 37 24 77 -7z m-207 -40 c0 -3
-19 -30 -42 -59 -23 -29 -43 -61 -44 -70 -4 -26 -9 -27 -34 -7 l-22 18 51 53
c28 29 49 57 46 62 -11 17 5 30 26 19 10 -6 19 -13 19 -16z m-234 -29 c14 -22
14 -29 0 -78 -19 -65 -34 -79 -78 -75 -48 4 -60 36 -41 102 8 28 22 57 31 64
27 21 70 15 88 -13z m368 -34 c12 -13 18 -38 19 -81 2 -67 -13 -90 -59 -90
-54 0 -86 114 -48 168 19 28 64 29 88 3z m875 -142 l43 -86 77 23 c42 13 78
24 81 24 3 0 19 -12 35 -28 143 -131 154 -137 316 -196 144 -52 163 -56 250
-58 l94 -2 -105 -5 c-58 -4 -107 -3 -108 2 -2 4 -7 5 -11 2 -7 -3 -110 31
-268 88 -25 10 -115 83 -190 156 -12 11 -26 10 -93 -10 -44 -12 -81 -21 -83
-18 -3 2 -32 53 -66 112 -39 67 -60 115 -56 125 7 19 16 5 84 -129z m-2561 88
c27 -21 1 -71 -33 -62 -5 2 -22 6 -37 9 -21 5 -28 12 -28 31 0 13 7 28 16 33
18 10 63 4 82 -11z m2412 -92 c0 -19 4 -67 10 -107 5 -40 12 -98 15 -129 5
-45 10 -58 26 -62 12 -3 19 -14 19 -31 0 -21 -6 -26 -37 -31 -21 -3 -50 -8
-65 -10 -18 -3 -28 0 -28 8 0 6 -3 22 -6 33 -4 15 0 23 13 26 18 5 18 10 7
109 -7 57 -13 116 -13 132 -1 20 -6 27 -20 27 -13 0 -20 9 -23 30 -3 17 -2 32
0 35 3 3 27 5 54 5 l48 0 0 -35z m-2227 -77 c24 -37 -46 -115 -78 -88 -23 19
-18 51 12 82 29 31 50 33 66 6z m1643 -62 c51 -50 55 -76 18 -105 -37 -29 -48
-27 -99 20 -52 48 -60 87 -23 113 35 25 58 19 104 -28z m-1399 -13 c-26 -82
-33 -93 -52 -79 -17 12 -17 14 3 34 12 12 22 31 22 42 0 12 7 20 16 20 11 0
15 -6 11 -17z m1128 -19 c0 -15 -13 -22 -61 -34 -34 -8 -69 -21 -78 -29 -15
-13 -19 -13 -27 0 -5 8 -9 22 -9 31 0 19 16 33 24 20 7 -12 109 10 119 26 12
18 32 10 32 -14z m1757 14 c-9 -9 -15 -9 -24 0 -9 9 -7 12 12 12 19 0 21 -3
12 -12z m51 5 c-7 -2 -19 -2 -25 0 -7 3 -2 5 12 5 14 0 19 -2 13 -5z m-1201
-50 c26 -23 22 -53 -12 -101 -46 -61 -95 -68 -118 -16 -14 29 0 63 43 107 32
31 60 34 87 10z m553 -28 c-21 -19 -40 -33 -43 -30 -3 2 7 14 23 26 15 12 32
28 39 35 6 6 13 10 15 8 2 -1 -14 -19 -34 -39z m769 -6 c-30 -12 -232 -10
-239 2 -5 7 35 9 125 8 73 -2 124 -6 114 -10z m53 5 c-3 -3 -12 -4 -19 -1 -8
3 -5 6 6 6 11 1 17 -2 13 -5z m-3063 -89 c14 -14 32 -25 41 -25 16 0 20 -15 6
-24 -7 -4 -56 16 -100 41 -4 3 19 33 25 33 2 0 14 -11 28 -25z m-134 -34 c18
-36 18 -41 4 -55 -20 -21 -37 -20 -56 2 -37 42 -33 92 7 92 18 0 30 -10 45
-39z m3193 -58 c-7 -2 -19 -2 -25 0 -7 3 -2 5 12 5 14 0 19 -2 13 -5z m-3335
-148 c-2 -39 -6 -51 -16 -48 -7 3 -11 12 -8 20 3 8 6 33 6 54 0 25 4 38 10 34
6 -4 9 -30 8 -60z m260 15 c-2 -26 -8 -40 -17 -40 -8 0 -11 6 -7 16 3 9 9 27
12 40 9 36 15 29 12 -16z m3182 -30 l-65 -7 85 -3 c60 -2 72 -5 40 -8 -25 -2
-79 0 -120 4 -69 7 -72 8 -35 15 22 3 67 6 100 6 l60 0 -65 -7z m97 4 c-3 -3
-12 -4 -19 -1 -8 3 -5 6 6 6 11 1 17 -2 13 -5z m-3689 -16 c7 -7 12 -29 12
-50 0 -42 -20 -59 -48 -41 -16 10 -27 65 -18 89 7 17 38 18 54 2z m3415 5 c-7
-2 -19 -2 -25 0 -7 3 -2 5 12 5 14 0 19 -2 13 -5z m-3633 -144 c30 -123 31
-131 21 -125 -5 4 -12 2 -16 -4 -3 -5 -14 -10 -23 -9 -13 0 -12 3 6 11 28 14
28 21 -8 120 -35 95 -39 121 -14 97 8 -9 24 -49 34 -90z m535 21 c22 -24 14
-97 -14 -129 -38 -44 -106 -16 -96 39 6 37 23 81 37 97 16 19 52 16 73 -7z
m-625 -180 c0 -5 -12 -10 -27 -9 l-28 1 25 8 c14 4 26 8 28 9 1 1 2 -3 2 -9z
m4389 -183 l171 -171 -1 -276 c-1 -151 -5 -288 -9 -305 -4 -16 -8 105 -9 270
l-1 301 -163 162 -164 162 -294 0 -294 -1 -164 -161 -164 -161 -53 29 c-62 34
-57 56 6 24 23 -12 45 -20 50 -18 5 2 76 69 157 149 81 80 157 151 168 157 14
8 109 12 307 11 l286 0 171 -172z m-3662 90 c-2 -7 -15 -50 -28 -95 l-24 -84
-71 7 c-71 6 -72 6 -133 -33 l-61 -40 -105 27 -104 27 -260 -260 c-147 -147
-259 -252 -257 -241 2 11 9 20 17 20 8 1 13 6 12 12 -2 10 413 433 424 433 3
0 14 12 25 26 19 23 26 25 69 20 26 -3 76 -13 111 -21 l62 -14 64 35 c57 32
70 36 125 32 l62 -3 16 80 c9 44 17 81 18 83 1 1 10 2 22 2 13 0 19 -5 16 -13z
m3625 -134 l128 -128 0 -286 c0 -297 -7 -429 -21 -394 -4 11 -8 167 -8 346
l-1 325 -122 122 -122 122 -281 -5 -280 -5 -38 -43 c-20 -23 -88 -102 -150
-174 l-112 -133 -61 0 c-33 0 -102 -3 -152 -6 -67 -5 -92 -4 -92 5 0 8 39 11
128 12 70 1 137 4 148 7 12 4 79 77 150 162 71 85 138 165 149 178 19 22 21
22 315 22 l295 0 127 -127z m-4342 81 c0 -8 -19 -13 -24 -6 -3 5 1 9 9 9 8 0
15 -2 15 -3z m23 -61 c-6 -2 -9 -14 -7 -26 4 -21 4 -21 -5 -2 -15 32 -13 45 6
38 9 -4 12 -8 6 -10z m-3 -73 c0 -5 -4 -10 -10 -10 -5 0 -10 5 -10 10 0 6 5
10 10 10 6 0 10 -4 10 -10z m-7 -72 c7 -4 -60 -79 -168 -188 -174 -175 -215
-212 -215 -191 0 5 9 13 20 16 11 4 18 10 16 14 -6 9 288 301 303 301 7 0 10
4 7 9 -3 5 0 14 7 20 8 6 13 23 12 38 -1 16 0 19 2 8 3 -11 10 -23 16 -27z m4
30 c-3 -8 -6 -5 -6 6 -1 11 2 17 5 13 3 -3 4 -12 1 -19z m4000 -154 c-3 -3
-12 -4 -19 -1 -8 3 -5 6 6 6 11 1 17 -2 13 -5z m110 0 c-3 -3 -12 -4 -19 -1
-8 3 -5 6 6 6 11 1 17 -2 13 -5z m-65 -334 c9 -85 17 -158 17 -161 1 -4 10 -9
21 -12 14 -4 20 -14 20 -35 0 -26 -4 -30 -37 -36 -21 -3 -53 -6 -70 -6 -29 0
-33 3 -33 26 0 15 7 32 15 38 12 9 13 27 5 111 -14 140 -19 165 -34 165 -14 0
-26 21 -26 45 0 14 36 23 80 21 24 -1 25 -3 42 -156z m-309 86 c49 -20 87 -70
87 -114 0 -40 -53 -227 -70 -247 -17 -20 -75 -45 -105 -45 -67 0 -135 62 -135
123 0 31 34 174 52 220 24 61 105 91 171 63z m-331 -108 c4 -7 7 -24 6 -38 -1
-24 -1 -24 -5 -2 -2 12 -15 30 -29 38 -21 14 -27 14 -42 3 -15 -13 -16 -12 -3
3 15 20 59 17 73 -4z m-3717 -19 c-4 -5 -12 -9 -18 -8 -9 0 -8 2 1 6 6 2 9 10
6 15 -4 7 -2 8 5 4 6 -4 9 -12 6 -17z m840 -49 c-3 -5 -12 -10 -18 -10 -7 0
-6 4 3 10 19 12 23 12 15 0z m2870 -10 c3 -5 1 -10 -4 -10 -6 0 -11 5 -11 10
0 6 2 10 4 10 3 0 8 -4 11 -10z m-2045 -160 c0 -6 -42 -10 -113 -10 l-112 0
-89 -89 c-49 -49 -87 -93 -85 -98 3 -6 17 -6 37 -1 18 5 31 12 28 16 -7 11 61
75 75 70 8 -3 -7 -24 -41 -56 l-54 -51 -195 1 c-130 0 -182 3 -156 9 22 4 91
7 154 7 96 0 115 2 123 16 5 9 13 14 19 11 5 -4 9 -1 9 6 0 6 34 47 77 90 l76
78 87 3 c47 2 103 4 123 6 21 1 37 -2 37 -8z m1804 -28 c3 -5 -8 -6 -25 -4
-16 2 -29 6 -29 8 0 8 49 4 54 -4z m135 -56 c-3 -3 -11 5 -18 17 -13 21 -12
21 5 5 10 -10 16 -20 13 -22z m-1956 -43 c-29 -2 -78 -2 -110 0 -32 2 -8 3 52
3 61 0 87 -1 58 -3z m1064 -53 c7 -14 13 -21 13 -15 0 5 21 -12 48 -37 l47
-47 394 -5 c216 -3 396 -7 399 -10 3 -4 -168 -6 -379 -7 -211 0 -391 -2 -400
-4 -10 -2 -43 24 -79 61 -35 35 -69 64 -75 64 -7 0 -61 -20 -121 -44 -60 -25
-116 -46 -124 -48 -8 -2 -21 -9 -28 -15 -19 -18 -29 -16 -35 7 -3 11 -2 18 1
16 4 -2 72 22 152 54 80 32 152 57 160 56 8 0 20 -12 27 -26z m-628 -26 c17
-14 31 -32 31 -40 0 -8 -13 0 -30 20 -21 24 -36 32 -50 29 -23 -6 -27 -41 -7
-63 10 -12 9 -12 -5 -1 -31 23 -17 81 18 81 7 0 26 -12 43 -26z m-1424 -4 c-3
-5 -12 -10 -18 -10 -7 0 -6 4 3 10 19 12 23 12 15 0z m-135 -6 c0 -8 -19 -13
-24 -6 -3 5 1 9 9 9 8 0 15 -2 15 -3z m1568 -62 c8 8 12 9 12 1 0 -20 -33 -24
-49 -7 -15 15 -14 15 5 6 15 -8 24 -8 32 0z m-451 -144 c-3 -8 -6 -5 -6 6 -1
11 2 17 5 13 3 -3 4 -12 1 -19z m1083 -18 c15 -8 18 -18 13 -48 -11 -78 -83
-91 -83 -15 0 34 22 73 42 73 5 0 18 -5 28 -10z m-380 -60 c0 -5 -5 -10 -11
-10 -5 0 -7 5 -4 10 3 6 8 10 11 10 2 0 4 -4 4 -10z m530 6 c0 -2 -7 -9 -15
-16 -13 -11 -14 -10 -9 4 5 14 24 23 24 12z m38 -27 c-3 -8 -7 -3 -11 10 -4
17 -3 21 5 13 5 -5 8 -16 6 -23z m187 21 c3 -6 -1 -7 -9 -4 -18 7 -21 14 -7
14 6 0 13 -4 16 -10z m283 -41 c-3 -33 -4 -33 -8 8 -3 23 -2 39 3 34 5 -5 7
-24 5 -42z m-2271 19 c-3 -8 -6 -5 -6 6 -1 11 2 17 5 13 3 -3 4 -12 1 -19z
m2080 -30 c-2 -13 -4 -5 -4 17 -1 22 1 32 4 23 2 -10 2 -28 0 -40z m-940 10
c-3 -7 -5 -2 -5 12 0 14 2 19 5 13 2 -7 2 -19 0 -25z m553 -3 c0 -19 -4 -35
-8 -35 -4 0 -6 16 -4 35 5 45 12 45 12 0z m-1486 10 c-4 -8 -11 -15 -16 -15
-6 0 -5 6 2 15 7 8 14 15 16 15 2 0 1 -7 -2 -15z m1593 -27 c-3 -8 -6 -5 -6 6
-1 11 2 17 5 13 3 -3 4 -12 1 -19z"/>
<path d="M4310 4176 c0 -2 8 -10 18 -17 15 -13 16 -12 3 4 -13 16 -21 21 -21
13z"/>
<path d="M5666 3027 c-11 -58 12 -88 34 -47 15 29 9 74 -11 78 -12 2 -18 -7
-23 -31z"/>
<path d="M8128 1933 c12 -2 30 -2 40 0 9 3 -1 5 -23 4 -22 0 -30 -2 -17 -4z"/>
<path d="M7905 1851 c-3 -5 0 -13 7 -18 16 -10 42 -14 33 -5 -4 4 -12 7 -18 7
-7 1 -11 6 -9 13 2 14 -4 16 -13 3z"/>
<path d="M6430 636 c0 -2 7 -7 16 -10 8 -3 12 -2 9 4 -6 10 -25 14 -25 6z"/>
<path d="M4810 4256 c0 -2 8 -10 18 -17 15 -13 16 -12 3 4 -13 16 -21 21 -21
13z"/>
<path d="M7881 4061 c-26 -26 -58 -200 -41 -230 15 -29 53 -43 84 -31 27 10
40 43 56 140 14 89 13 97 -10 120 -25 25 -64 26 -89 1z"/>
<path d="M7430 3910 c-22 -22 -26 -51 -10 -80 18 -33 150 -140 174 -140 29 0
66 40 66 71 -1 29 -16 48 -96 117 -68 57 -101 65 -134 32z"/>
<path d="M6313 3931 c-25 -21 -31 -51 -10 -51 19 0 47 33 47 53 0 22 -9 21
-37 -2z"/>
<path d="M6423 3619 c-15 -15 5 -61 25 -57 22 4 24 20 4 46 -13 17 -20 20 -29
11z"/>
<path d="M6140 3555 c0 -15 46 -32 57 -22 3 4 3 13 0 22 -8 20 -57 20 -57 0z"/>
<path d="M6507 3463 c-4 -3 -7 -24 -7 -45 0 -34 3 -38 25 -38 22 0 25 4 25 39
0 26 -5 41 -16 45 -19 7 -19 7 -27 -1z"/>
<path d="M6954 3439 c-9 -15 6 -27 41 -31 21 -2 31 2 33 13 4 24 -60 40 -74
18z"/>
<path d="M6356 3411 c-8 -12 32 -61 49 -61 23 0 24 27 1 49 -24 22 -41 27 -50
12z"/>
<path d="M6790 3345 c-18 -19 -21 -28 -12 -37 9 -9 18 -6 37 12 27 25 33 50
12 50 -8 0 -24 -11 -37 -25z"/>
<path d="M4020 3241 c0 -35 3 -41 21 -41 17 0 20 5 17 37 -2 27 -8 39 -20 41
-15 3 -18 -4 -18 -37z"/>
<path d="M4114 3267 c-10 -27 0 -62 19 -65 16 -3 18 2 15 34 -3 39 -24 57 -34
31z"/>
<path d="M3927 3273 c-12 -11 -7 -60 7 -72 20 -17 35 7 29 47 -5 30 -21 41
-36 25z"/>
<path d="M4217 3253 c-13 -13 -7 -73 7 -73 14 0 26 29 26 63 0 17 -20 23 -33
10z"/>
<path d="M4310 3221 c0 -19 23 -71 31 -71 15 0 22 27 15 55 -4 16 -13 25 -26
25 -11 0 -20 -4 -20 -9z"/>
<path d="M5800 3142 c0 -10 6 -27 14 -38 20 -26 40 -7 30 30 -7 30 -44 37 -44
8z"/>
<path d="M6706 3154 c-8 -21 -1 -31 35 -50 41 -21 84 -15 84 11 0 38 -106 73
-119 39z"/>
<path d="M6477 3094 c-8 -8 21 -64 33 -64 17 0 20 18 9 44 -12 25 -29 33 -42
20z"/>
<path d="M6945 3030 c-7 -11 8 -41 29 -60 13 -10 19 -10 31 0 13 11 12 16 -6
41 -21 29 -43 37 -54 19z"/>
<path d="M7576 3013 c-8 -20 30 -63 55 -63 29 0 30 28 1 55 -31 29 -47 32 -56
8z"/>
<path d="M3770 2910 c-17 -17 -20 -33 -20 -123 0 -120 14 -147 75 -147 53 0
65 26 65 145 0 88 -3 104 -20 123 -26 28 -73 29 -100 2z"/>
<path d="M6637 2852 c-26 -29 -21 -65 23 -153 45 -89 72 -110 115 -91 14 7 30
24 36 39 9 24 4 40 -38 123 -46 91 -49 95 -84 98 -24 2 -40 -3 -52 -16z"/>
<path d="M6440 2765 c0 -24 25 -45 54 -45 23 0 20 23 -7 48 -31 29 -47 28 -47
-3z"/>
<path d="M5974 2684 c-21 -50 -15 -79 15 -79 20 0 26 7 35 46 14 54 11 69 -15
69 -13 0 -25 -12 -35 -36z"/>
<path d="M6360 2666 c-18 -22 -1 -110 22 -114 24 -5 36 27 29 78 -6 48 -28 63
-51 36z"/>
<path d="M4655 2630 c-9 -15 3 -26 38 -34 20 -5 29 -2 33 9 8 20 6 21 -33 29
-19 5 -34 3 -38 -4z"/>
<path d="M4862 2447 c-25 -27 -28 -43 -8 -50 19 -7 60 38 53 57 -9 22 -20 20
-45 -7z"/>
<path d="M6477 2413 c-15 -15 -5 -41 28 -73 28 -28 39 -32 52 -24 27 17 26 30
-8 68 -29 34 -57 45 -72 29z"/>
<path d="M6820 2298 c-35 -48 -35 -72 0 -76 19 -2 31 7 53 37 32 46 32 45 11
65 -23 23 -31 20 -64 -26z"/>
<path d="M5020 2192 c0 -28 25 -56 43 -49 17 6 14 29 -6 55 -14 18 -37 15 -37
-6z"/>
<path d="M4753 1953 c-7 -3 -13 -15 -13 -27 0 -29 24 -61 38 -52 27 16 3 90
-25 79z"/>
<path d="M5033 1803 c-20 -50 -21 -83 -2 -96 27 -17 46 -1 59 53 9 38 9 55 1
63 -23 23 -43 16 -58 -20z"/>
<path d="M8153 863 c-25 -22 -75 -189 -66 -221 12 -48 88 -61 119 -21 13 17
54 168 54 198 0 50 -68 78 -107 44z"/>
<path d="M6883 139 c-19 -7 -23 -16 -23 -48 0 -42 13 -54 43 -39 12 6 17 21
17 48 0 45 -6 51 -37 39z"/>
<path d="M5010 4360 c0 -22 4 -40 8 -40 5 0 53 -34 107 -76 l98 -76 126 18
126 18 61 65 c34 37 74 81 89 99 l27 32 -321 0 -321 0 0 -40z"/>
<path d="M6738 4393 c6 -2 18 -2 25 0 6 3 1 5 -13 5 -14 0 -19 -2 -12 -5z"/>
</g>
</svg>
